<svg width="160" height="160" viewBox="0 0 160 160" fill="none" xmlns="http://www.w3.org/2000/svg">
  <rect width="160" height="160" rx="32" fill="#fff" />
  <g filter="url(#shadow)">
    <path d="M48 84C48 65.4315 62.4315 51 81 51C99.5685 51 114 65.4315 114 84C114 93.5745 108.235 102.305 99.5 107.186C95.2185 109.534 89.8062 110.544 84.4444 110.111C79.0826 109.678 74.1941 107.838 70.6288 104.937C67.0635 102.036 64.9642 98.1975 64 94.0118C62.3158 86.8241 61 88.8125 58 84C56.5132 81.6278 54.7018 79.6194 52.649 77.9999C50.2766 76.1418 47.4018 74.9965 44.4046 75.0001C42.8841 75.0017 42 76.5649 42 78.0489V100.951C42 102.435 43.5565 103.204 45.0026 102.399C47.6703 100.926 50.4832 99.8896 53.3567 99.3072C56.2242 98.7252 59.1807 98.6103 62.0559 98.9696C64.9311 99.3288 67.6745 100.159 70.0453 101.394C72.4161 102.629 74.3534 104.234 75.7265 106.086C77.0996 107.938 77.8692 109.991 77.967 112.113C78.0648 114.234 77.485 116.346 76.2748 118.191C74.8793 120.354 72.6466 122.137 69.9706 123.247C67.2947 124.356 64.3215 124.737 61.4327 124.346C58.544 123.955 55.8427 122.812 53.7624 121.093C51.6822 119.374 50.2854 117.14 49.8127 114.627C49.3401 112.114 49.8145 109.506 51.1803 107.318C52.5462 105.129 54.7315 103.45 57.4434 102.629C60.1552 101.807 63.2119 101.889 65.9718 102.859C68.7317 103.828 71.0041 105.62 72.4182 108.005" fill="#C4914B"/>
  </g>
  <path d="M47 54C47 44.0589 54.5794 35.5 64.5 35.5C74.4206 35.5 82 44.0589 82 54.9999V64H47V54Z" fill="#C4914B"/>
  <path d="M47 56C47 64.8366 53.6634 72.5 62.5 72.5C71.3366 72.5 78 64.8366 78 56" stroke="#C4914B" stroke-width="4"/>
  <path d="M59 44C59 39.5817 62.5817 36 67 36C71.4183 36 75 39.5817 75 44" stroke="#C4914B" stroke-width="3"/>
  <path d="M56 92C56 82.0589 63.5794 73.5 73.5 73.5C83.4206 73.5 91 82.0589 91 91.9999V101H56V92Z" fill="#C4914B" opacity="0.15"/>
  <text x="80" y="136" text-anchor="middle" font-family="Inter, Arial, sans-serif" font-size="18" font-weight="700" fill="#C4914B">DOJA</text>
  <text x="80" y="153" text-anchor="middle" font-family="Inter, Arial, sans-serif" font-size="10" fill="#7C5A38">BEAUTY</text>
  <defs>
    <filter id="shadow" x="12" y="12" width="136" height="136" filterUnits="userSpaceOnUse" color-interpolation-filters="sRGB">
      <feDropShadow dx="0" dy="6" stdDeviation="8" flood-color="#F4C27C" flood-opacity="0.35"/>
    </filter>
  </defs>
</svg>
